<svg xmlns="http://www.w3.org/2000/svg" width="1681" height="280"><path fill="#f7f6f9" d="M311 75h26c3.313 7.125 3.313 7.125 4.337 9.333A397 397 0 0 0 347 96l2.563-.687c4.384-.4 6.61.56 10.437 2.687 2.375 2.188 2.375 2.188 4 5l.156 3.926c.17 2.134.17 2.134.844 4.074 2.512 1.841 4.315 2.855 7.125 4q2.2.999 4.398 2.004l2.265 1c10.656 4.797 20.133 10.63 29.212 17.996l2.273 1.773c6.922 5.65 13.69 13.536 15.098 22.622.178 6.473-.94 10.78-5.371 15.605-5.909 5.222-12.366 7.451-20 9l-2.691.555C363.88 190.054 329.59 179.454 299 167c-2.145 3.083-2.145 3.083-4 7h-26c3.375-10.125 3.375-10.125 5.188-14.562l1.042-2.567L276 155l-2.492-1.469c-7.3-4.383-13.972-9.047-20.508-14.531l-3.125-2.375c-7.795-7.117-15.41-16.548-16.125-27.437.113-5.618 2.17-9.388 6.125-13.313C250.865 87.265 265.79 87.913 279 89c8.06.99 16.033 2.443 24 4zm-63 26c-2.18 3.836-2.12 5.511-1.062 9.813C253.158 125.01 267.177 133.379 280 141l3 1q4.065-9.555 8.118-19.116 1.38-3.255 2.764-6.507 1.985-4.667 3.962-9.338l1.26-2.951 1.152-2.73 1.023-2.41c.837-1.914.837-1.914.721-3.948-7.25-1.118-14.422-1.219-21.75-1.25l-3.633-.062c-9.723-.043-21.097.386-28.617 7.312m75 1c-5.333 12.959-10.657 25.92-15.687 39l-1.026 2.637-.924 2.425-.803 2.098c-.706 1.998-.706 1.998-.56 4.84 21.382 9.62 21.382 9.62 44 14-.62-3.501-1.527-6.678-2.794-9.999l-1.114-2.934-1.205-3.141-1.245-3.27q-1.974-5.173-3.954-10.344-1.317-3.45-2.631-6.904c-3.622-9.496-7.253-18.983-11.057-28.408zm38 15-5 4q3.973 9.45 7.953 18.896 1.353 3.212 2.703 6.425 1.944 4.626 3.895 9.25l1.212 2.888c1.94 4.597 3.934 9.115 6.237 13.541 14.516.794 14.516.794 28-4 2.286-2.503 3.56-4.623 4-8-1.869-7.742-6.466-12.458-12-18l-1.957-1.992c-9.87-9.384-22.553-17.61-35.043-23.008"/><path fill="#f9f8fa" d="m153.195 74.832 2.848-.01q3.004-.007 6.007-.007c3.014-.002 6.027-.02 9.04-.04 37.178-.11 37.178-.11 49.91 12.225 7.398 9.243 7.71 19.613 7 31-1.363 8.74-5.643 15.233-12.25 21-2.75 2-2.75 2-4.75 2 5.672 9.357 11.357 18.696 17.357 27.846C231 172.898 231 172.898 231 174h-29l-5.875-10.75-1.843-3.37-1.462-2.677-1.491-2.73A249 249 0 0 1 188 148l-19-1v27h-26q-.034-19.14-.052-38.281-.007-8.887-.023-17.773-.016-8.57-.02-17.137-.003-3.278-.01-6.554-.01-4.573-.009-9.145l-.01-2.766c.014-8.787 2.359-7.502 10.32-7.512M169 96v30l12.125.25 3.79.11c6.337.064 10.322 0 15.085-4.36 3.546-4.035 4.304-7.567 4.215-12.941-.474-4.538-2.438-7.34-5.715-10.371-3.787-2.557-6.582-2.81-11.043-2.786l-2.93.008-3.714.028z"/><path fill="#fbfafc" d="M738 75c64.684 0 64.684 0 77.863 12.559 7.077 8.086 7.82 18.11 7.137 28.441-1.322 8.345-4.408 16.063-10.945 21.668-1.636 1.182-3.34 2.269-5.055 3.332.634 3.222 1.776 5.511 3.547 8.266l1.562 2.449 1.641 2.535 3.172 4.953a1624 1624 0 0 0 4.584 7.12l1.385 2.161 1.235 1.913C825 172 825 172 825 174c-4.54.291-9.078.468-13.625.625l-3.895.254c-3.728.096-6.864.046-10.48-.879-3.046-2.908-4.423-6.142-6-10a180 180 0 0 0-2.336-4.187q-1.023-1.904-2.039-3.813l-1.074-1.98C783 149.243 783 149.243 783 147h-20v27h-25zm25 21v30l12.125.188 3.79.082c6.794.051 11.202-.496 16.835-4.52 3.377-4.728 3.662-10.044 2.855-15.602-1.048-3.718-2.776-5.512-5.605-8.148-3.761-1.878-6.779-2.238-10.957-2.195l-3.038.015-3.817.055z"/><path fill="#f9f8fa" d="m535.313 74.867 3.257-.004 3.43.012 3.43-.012 3.258.004 3.011.004C554 75 554 75 555 76c.16 2.883.26 5.744.316 8.629l.063 2.619q.098 4.157.183 8.314l.131 5.624q.161 6.907.307 13.814l6.277-6.75 1.789-1.922c4.55-4.896 8.984-9.87 13.322-14.955l3.172-3.717a1630 1630 0 0 0 3.179-3.734l1.491-1.75 1.325-1.56L588 79l1.766-2.174c3.02-2.469 4.886-2.287 8.75-2.217l3.789.04 3.945.101 3.992.055q4.88.071 9.758.195c-.588 3.428-1.732 5.126-4.133 7.61l-1.945 2.038-2.047 2.102a2879 2879 0 0 0-3.945 4.11l-1.983 2.067c-2.515 2.678-4.922 5.442-7.326 8.22a180 180 0 0 1-4.457 4.9l-2.539 2.703-2.586 2.734c-1.98 2.442-2.658 3.486-3.039 6.516a73 73 0 0 0 4.617 7.043q1.539 2.16 3.073 4.322l1.645 2.292c2.787 3.922 5.477 7.909 8.173 11.894l3.297 4.861 1.651 2.438q1.695 2.499 3.392 4.994 2.49 3.664 4.972 7.332l1.537 2.253 1.41 2.088 1.238 1.825C622 171 622 171 623 174c-4.125.274-8.246.472-12.378.604q-2.102.082-4.201.226c-11.504.767-11.504.767-15.863-2.864-2.118-2.883-3.832-5.834-5.558-8.966a492 492 0 0 0-4.43-6.543c-1.87-2.79-3.74-5.58-5.595-8.38a1073 1073 0 0 0-3.342-4.995l-1.972-2.962L568 138c-3.694 0-5.936 2.826-8.45 5.308-6.807 8.12-4.653 20.97-4.55 30.692h-26q-.034-19.14-.052-38.281-.007-8.887-.023-17.773-.016-8.57-.02-17.137-.003-3.278-.01-6.554-.01-4.573-.009-9.145l-.01-2.766c.012-7.47.012-7.47 6.437-7.477"/><path fill="#f8f7fa" d="m643.936 74.864 2.138.007 2.242-.006q3.685-.004 7.371.002l5.1-.003q5.353-.001 10.704.006 6.876.006 13.751-.004 5.268-.005 10.536 0l5.072-.002q3.538-.003 7.076.007l2.138-.007c4.822.022 4.822.022 5.936 1.136v20h-52v19h47v20h-47v19h53v20q-15.229.034-30.458.052-7.071.007-14.141.023-6.818.016-13.636.02-2.607.003-5.214.01-3.64.01-7.277.009l-2.2.01c-4.96-.01-4.96-.01-6.074-1.124-.1-3.008-.136-5.993-.13-9.002l-.005-2.862q-.004-4.71.002-9.417l-.003-6.513q-.001-6.835.006-13.67.006-8.782-.004-17.564-.005-6.728 0-13.454 0-3.24-.002-6.479-.003-4.518.007-9.037l-.007-2.733c.026-7.378.026-7.378 6.072-7.405"/><path fill="#faf9fb" d="M502.922 82.563c3.627 2.509 6.877 5.41 10.078 8.437-1.312 2.843-2.767 5.094-4.82 7.453l-1.621 1.875-1.684 1.922-1.707 1.969q-2.08 2.395-4.168 4.781l-1.349-1.214c-3.445-3.037-6.66-5.612-10.839-7.599l-2.48-1.207c-7.88-3.313-14.93-2.398-22.715.707-6.162 3.091-9.454 7.232-12.055 13.563-2.487 7.826-2.715 15.823.282 23.55 3.43 6.525 7.815 11.066 14.719 13.762C472.63 152.98 479.28 152.185 487 149c3.146-1.818 6.073-3.851 9-6l3-2c4.926 4.79 9.536 9.777 14 15-3.562 8.366-12.882 12.18-20.691 15.738-13.62 5.194-28.896 5.13-42.309-.738-14.436-7.328-22.777-17.74-28-33-3.193-12.263-1.655-26.544 4.426-37.59 1.433-2.226 2.952-4.32 4.574-6.41l2.25-3.125c17.934-18.749 47.743-21.307 69.672-8.312"/><path fill="#f8f7fa" d="M857 75h15a506 506 0 0 1 13.625 29l1.795 4.135q1.388 3.195 2.772 6.393 2.814 6.499 5.666 12.981a5101 5101 0 0 1 3.646 8.316q.867 1.979 1.74 3.955 1.209 2.743 2.404 5.49l1.38 3.143C906 151 906 151 906 154h2l.385-2.22c.582-2.63 1.36-4.804 2.45-7.26l1.2-2.718 1.34-2.99 1.41-3.175Q917.381 129.814 920 124l1.131-2.515q4.426-9.84 8.869-19.672l1.28-2.834q1.826-4.043 3.658-8.084l1.106-2.45C941.432 76.568 941.432 76.568 943 75h14v99h-12V96l-13 30a3453 3453 0 0 1-8.934 19.878q-1.845 4.064-3.683 8.13l-2.39 5.273-1.09 2.405c-1.887 4.149-3.834 8.252-5.903 12.314h-6c-5.257-10.248-10.05-20.647-14.687-31.187l-1.913-4.327L881 124l-12-27-1 77h-11zM44 75h84v21H99v78H73V96H44z"/><path fill="#7fba4a" d="M311 75h26l3.375 7.063 1.052 2.18c1.976 4.186 3.68 8.2 4.573 12.757-.863 1.926-.863 1.926-2.312 3.313-3.05 2.872-3.05 2.872-3.743 6.675.34 4.391.634 6.494 3.493 10.012 3.224 2.517 4.692 3.127 8.687 3.063L356 120a646 646 0 0 1 12.972 29.047q1.282 3.071 2.573 6.139c2.325 5.556 4.613 11.073 6.455 16.814a275 275 0 0 1-12.844-.834 96 96 0 0 0-4.242-.234c-4.802-.162-8.592-.807-12.914-2.932-1.352-2.524-2.102-4.42-2.848-7.121a928 928 0 0 0-1.471-4.638l-.798-2.548c-1.622-4.945-3.529-9.782-5.406-14.634l-2.403-6.26-2.449-6.362-2.52-6.56Q327.056 111.937 324 104c-2.049 2.049-2.637 3.247-3.664 5.896-.314.8-.628 1.602-.95 2.428l-1.011 2.63-1.053 2.705q-1.103 2.838-2.199 5.68a3128 3128 0 0 1-3.357 8.657l-2.141 5.52-1.01 2.604c-1.644 4.264-3.217 8.528-4.615 12.88q-3.846-1.65-7.687-3.312l-2.186-.936c-3.888-1.686-7.548-3.458-11.127-5.752.575-4.24 1.578-7.801 3.269-11.727l1.427-3.337 1.546-3.561 1.589-3.698q1.66-3.865 3.334-7.726 2.134-4.929 4.253-9.865 2.034-4.731 4.074-9.461l1.535-3.561 1.445-3.337 1.263-2.92c1.34-2.974 2.806-5.89 4.265-8.807"/><path fill="#f6f5f8" d="m1299.375 73.688 2.539.017c12.025.236 21.895 4.288 30.836 12.483 9.943 10.646 13.672 25.36 13.457 39.601-.952 14.767-4.786 29.35-16.176 39.602-11.371 9.01-23.663 11.505-38.031 10.609-12.56-1.95-23.036-7.397-30.625-17.687-9.521-14.209-11.13-30.395-8.187-47C1256.17 97.923 1263.004 88.25 1274 80c1.957-1.195 1.957-1.195 3.813-2.125l1.832-.945c6.58-2.598 12.726-3.292 19.73-3.243M1272.5 97.69c-7.807 10.015-8.342 23.126-7.5 35.309 1.648 10.55 6.412 20.414 15 27 9.34 5.28 19.267 6.432 29.672 3.813 8.046-2.808 14.138-7.38 18.328-14.813 6.629-13.769 6.99-29.613 2-44-3.196-8.596-8.824-14.394-17.105-18.273-15.194-5.827-30.01-.746-40.395 10.964"/><path fill="#f4f3f7" d="M1498 76c56.93 0 56.93 0 66.8 9.785 7.142 7.673 9.537 15.415 9.345 25.863-.549 8.924-3.596 16.703-9.93 23.176-9.01 7.345-20.116 9.322-31.461 9.274l-3.639-.008-4.553-.028L1510 144v31h-12zm12 11v45l15.813.25 4.917.11c8.89.068 18.187.113 25.26-6.111 5.625-6.032 6.484-11.956 6.31-20.022-.522-5.604-2.063-9.072-6.112-12.973C1543.775 83.739 1524.52 86.85 1510 87m-48-2c1.837 1.582 3.388 3.18 5 5l-6 8a502 502 0 0 1-6.77-3.437L1451.187 93l-3.019-1.562c-10.058-4.565-21.04-5.031-31.605-1.813-10.546 4.034-17.93 11.39-22.801 21.48-3.54 8.802-3.11 20.7.3 29.457 4.934 10.074 12.159 16.455 22.637 20.473 13.878 4.256 25.541 1.345 38.301-5.035l1-30h11c.248 4.998.43 9.993.55 14.996q.075 2.55.204 5.095c.7 14.022.7 14.022-2.767 18.522-2.594 1.878-5.029 3.173-7.987 4.387l-2.055.958c-1.711.742-3.485 1.335-5.257 1.917l-3.489 1.18c-13.722 4.054-28.178 2.963-40.976-3.446-13.086-7.477-21.624-17.847-25.754-32.49-2.99-13.496-.163-27.154 6.718-38.869 7.7-11.306 19.353-18.824 32.704-21.888 14.932-2.562 30.56-.076 43.109 8.638"/><path fill="#f6f5f8" d="M1657 84c-.665 4.389-2.188 7.981-4 12l-2.125-1.023-2.875-1.352-2.812-1.336c-6.575-2.659-12.68-3.633-19.75-3.602l-2.17-.048c-5.785-.006-10.579 1.12-15.143 4.924-2.748 3.51-2.444 7.17-2.125 11.437.9 3.644.9 3.644 3.625 5.96 3.164 1.385 6.386 2.595 9.625 3.79l2.115.79q5.467 2.045 10.963 4.01c20.418 7.353 20.418 7.353 25.64 17.294 2.961 6.907 2.952 13.22.47 20.281-3.961 8.84-9.718 12.458-18.57 15.93-13.722 4.524-28.36 2.193-41.18-3.868-4.858-2.546-8.728-5.407-12.688-9.187l5-10c3.35 1.675 6.438 3.482 9.625 5.438 10.818 6.263 21.977 8.888 34.453 5.8 4.51-1.668 7.367-3.032 9.922-7.238 1.424-4.614 1.28-8.202-.312-12.75-5.536-8.212-18.966-10.444-27.854-13.123-9.282-2.936-17.22-6.96-22.834-15.127-3.014-6.028-3.11-13.846-1.383-20.309 3.24-7.353 9.291-12.173 16.633-15.129 16.333-4.781 33.093-1.609 47.75 6.438"/><path fill="#f5f4f8" d="M1046 75c4.773-1.417 9.409-2.272 14 0 5.093 5.354 8.199 12.44 11.476 18.988 1.887 3.73 3.925 7.36 5.984 10.997 1.88 3.32 3.71 6.667 5.54 10.015 2.362-3.03 4.366-6.17 6.328-9.473l1.926-3.228 1.996-3.362a1305 1305 0 0 1 5.842-9.753q1.906-3.18 3.709-6.421c4.333-7.5 4.333-7.5 8.726-8.837l3.41.386 3.465.301L1121 75c-.94 4.433-3.19 7.884-5.562 11.688l-1.43 2.318a1064 1064 0 0 1-9.262 14.635l-1.096 1.706a2284 2284 0 0 1-5.43 8.412l-2.01 3.112c-.594.917-1.19 1.834-1.802 2.78-1.534 2.368-1.534 2.368-2.408 5.349 1.041 2.314 1.041 2.314 2.691 4.77.61.96 1.218 1.922 1.846 2.913l2.025 3.13 2.042 3.21c2.122 3.332 4.258 6.655 6.396 9.977a6618 6618 0 0 1 6.015 9.403 1534 1534 0 0 0 3.679 5.727l1.673 2.608 1.472 2.283C1121 171 1121 171 1122 174c-5.05.945-10.062 1.714-15 0-4.846-3.901-7.423-10.132-10.187-15.562a711 711 0 0 0-2.44-4.448 453 453 0 0 1-5.38-10.13c-1.034-1.936-2.132-3.824-3.244-5.715C1084 135 1084 135 1084 133h-2l-.846 2.231c-1.05 2.52-2.214 4.737-3.623 7.07l-1.464 2.44q-1.594 2.616-3.202 5.225c-2.608 4.239-5.125 8.453-7.353 12.905-5.387 10.377-5.387 10.377-9.405 11.799-4.47.68-8.672.182-13.107-.67 3.382-6.351 7.125-12.316 11.21-18.234q1.762-2.587 3.52-5.176 2.743-4.03 5.512-8.045c1.795-2.605 3.57-5.222 5.344-7.842l1.691-2.421 1.53-2.277 1.36-1.984c1.114-2.703.658-4.259-.167-7.021-1.29-2.532-1.29-2.532-2.957-5.07l-1.857-2.941c-.66-1.028-1.32-2.055-1.998-3.114l-2.028-3.206a2555 2555 0 0 0-9.824-15.368l-1.68-2.627a702 702 0 0 0-3.15-4.872l-1.408-2.197-1.234-1.901C1046 78 1046 78 1046 75"/><path fill="#f1eff5" d="m985.018 74.88 2.685.006h3.034l3.298.016 3.359.005c3.556.005 7.112.018 10.668.03l7.213.014q8.863.018 17.725.049v11h-38v32h35v11h-35v34h40v11h-53c-.04-24.417-.04-24.417-.049-34.787q-.008-10.634-.026-21.267-.016-8.57-.02-17.137-.003-3.278-.01-6.554-.01-4.573-.009-9.145l-.01-2.766c.012-7.278.012-7.278 3.142-7.464"/><path fill="#f6f5f8" d="m1218.313 73.688 2.795.006c15.818.232 15.818.232 19.892 4.306.072 2.02.084 4.042.063 6.063l-.028 3.347L1241 90c-3.26-.588-6.21-1.422-9.312-2.562-9.853-2.99-22.308-2.909-31.688 1.562-9.397 5.425-14.868 13.752-18 24-2.523 12.364-2.037 26.043 4.813 36.938 5.454 7.406 12.291 11.557 21.124 13.812 11.612.948 22.5-.592 33.063-5.75v12c-14.665 7.212-30.411 8.061-46 3-3.233-1.385-6.104-3.01-9-5l-1.86-1.27c-10.045-7.711-14.832-19.838-16.788-31.96-1.987-15.65 1.701-30.802 10.96-43.52 10.114-12.38 24.354-17.655 40-17.562"/><path fill="#ece9f1" d="m1139.469 74.867 3.031.008 3.031-.008C1148 75 1148 75 1149 76c.095 3.044.126 6.065.114 9.11v2.897c0 3.176-.009 6.352-.016 9.528l-.005 6.587q-.006 8.688-.024 17.376-.014 8.858-.02 17.715-.016 17.394-.049 34.787-2.97.039-5.937.063l-3.34.035C1137 174 1137 174 1136 173c-.1-3.008-.136-5.993-.13-9.002l-.005-2.862q-.004-4.71.002-9.417l-.003-6.513q-.002-6.835.006-13.67.006-8.782-.004-17.564-.004-6.728 0-13.454 0-3.24-.002-6.479-.003-4.518.007-9.037l-.007-2.733c.025-7.21.025-7.21 3.605-7.402"/><path fill="#7fb94c" d="m277 155 3.324 1.68 4.363 2.195 2.186 1.105c3.658 1.838 7.288 3.581 11.127 5.02l-3 9h-26c3.375-10.125 3.375-10.125 5.688-14.562l1.324-2.567z"/><path fill="#c1bad4" d="m302 93 1 2-35-1v-1c3.791-.2 7.583-.382 11.375-.562l3.215-.17c13.589-.626 13.589-.626 19.41.732"/><path fill="#dfdce9" d="m1188 82 2 1-12 12c0-4.023 1.324-5.043 4-8 1.95-1.745 3.95-3.37 6-5"/></svg>