<svg xmlns="http://www.w3.org/2000/svg" width="605" height="329"><path fill="#fbfbfc" d="M261 21c2.632-.36 2.632-.36 6.01-.34h3.822l4.145.047q2.115.009 4.228.013a1904 1904 0 0 1 11.137.074c3.787.03 7.574.044 11.361.06q11.15.05 22.297.146l9.14 21.328 1 2.33q.992 2.316 1.981 4.632a1089 1089 0 0 0 4.71 10.877l.853 1.95q1.135 2.588 2.28 5.174C345 70 345 70 345 73l2.238-.691c11.33-3.211 19.587-2.805 30.028 2.902C384.98 80.259 388.989 87.058 391 96c.473 5.208.326 9.946-1 15l1.706.448c7.644 2.136 14.767 5.213 21.981 8.49l1.911.862c31.336 14.17 61.67 31.157 87.402 54.2l3.14 2.738c15.104 13.31 31.46 32.692 33.133 53.696.434 11.973-1.526 21.688-9.648 31.004A219 219 0 0 1 525 267l-1.61 1.668c-18.378 17.669-50.178 22.34-74.628 22.57l-2.625.03c-32.649.29-64.137-2.65-96.137-9.268l-3.532-.729C306.033 272.744 267.06 258.924 229 243c-2.248 3.372-3.612 6.87-5.062 10.625-2.808 7.245-2.808 7.245-3.938 8.375-1.964.094-3.93.117-5.897.114h-3.822l-4.16-.016-4.233-.005q-5.58-.006-11.161-.024-5.691-.014-11.381-.02-11.173-.016-22.346-.049a179 179 0 0 1 6.54-17.43l.988-2.294q1.545-3.577 3.097-7.151 1.56-3.607 3.118-7.216.965-2.232 1.934-4.464c1.209-2.794 2.36-5.555 3.323-8.445l-2.086-.762c-3.352-1.424-6.429-3.172-9.539-5.05l-1.949-1.177c-17.408-10.651-33.864-22.554-48.75-36.523a186 186 0 0 0-6.864-6.05c-16.917-14.755-32.782-36.13-35.187-59.004-.394-11.219 2.115-20.808 9.48-29.414L83 75l1.738-1.863c19.36-18.697 50.33-19.873 75.59-19.529 20.968.43 41.588 4.353 62.118 8.373l3.827.75 3.357.668c3.783.675 7.554 1.153 11.37 1.601l.67-1.536q3.45-7.911 6.91-15.816 1.291-2.952 2.579-5.905 1.85-4.242 3.708-8.481l1.162-2.671 1.092-2.487.955-2.187C259 24 259 24 261 21M140 68l-2.22.422c-11.252 2.194-25.655 5.898-32.733 15.707-3.891 6.955-4.868 13.083-3.047 20.871 6.215 21.044 25.987 38.004 43.132 50.624a611 611 0 0 1 5.934 4.446c8.52 6.36 17.308 12.184 26.371 17.743l3.035 1.87 2.837 1.712 2.525 1.526c2.21 1.302 2.21 1.302 5.166 1.079l1.303-3.046a23573 23573 0 0 1 30.994-72.1q3.222-7.46 6.439-14.922l2.59-6.005q1.916-4.437 3.826-8.876l1.18-2.728 1.066-2.482.941-2.184c.723-1.514.723-1.514.661-2.657q-6.062-.726-12.125-1.437l-3.402-.409c-14.337-1.68-28.55-2.392-42.973-2.404l-2.53-.003c-13.195.01-26 .633-38.97 3.253m150 16c-4.987 10.362-9.029 21.1-13.187 31.813l-2.371 6.083-4.939 12.68a8811 8811 0 0 1-7.405 18.94l-1.207 3.078q-2.31 5.894-4.622 11.787a4660 4660 0 0 0-11.792 30.334l-1.059 2.734-.962 2.516-.855 2.22c-.706 1.813-.706 1.813-.601 3.815 26.817 10.905 53.973 20.598 81.813 28.563l2.175.624A359 359 0 0 0 353 246c-4.96-14.478-10.465-28.734-16-43l-2.904-7.503-4.516-11.667q-5.256-13.572-10.494-27.15l-.726-1.882-3.578-9.277A40632 40632 0 0 0 291 84zm89.188 40.813c-2.95 2.31-5.948 4.304-9.188 6.187 12.791 30.755 25.71 61.456 38.679 92.137q3.06 7.241 6.108 14.49l2.406 5.72q1.39 3.303 2.774 6.61l1.197 2.84 1.014 2.417c.689 1.768.689 1.768 1.822 2.786 21.967 3.326 50.031 1.723 69-11 5.232-4.516 8.398-9.06 9.246-16.02.717-12.402-7.34-23.732-15.183-32.667A409 409 0 0 0 482 193l-1.789-1.85c-8.018-8.261-16.078-16.122-25.211-23.15l-2.613-2.129c-17.15-13.715-36.176-25.513-55.13-36.54q-2.495-1.473-4.964-2.99c-.9-.55-1.8-1.101-2.727-1.67l-2.497-1.543c-3.658-1.995-4.827-.716-7.882 1.685"/><path fill="#7fbc49" d="M261 21c2.632-.36 2.632-.36 6.01-.34h3.822l4.145.047q2.115.009 4.228.013a1904 1904 0 0 1 11.137.074c3.787.03 7.574.044 11.361.06q11.15.05 22.297.146l9.14 21.328 1 2.33q.992 2.316 1.981 4.632a1089 1089 0 0 0 4.71 10.877l.853 1.95q1.135 2.588 2.28 5.174C345 70 345 70 345 73l2 1-1.758.996C337.17 79.911 332.566 85.862 330 95c-1.31 9.697.719 16.845 6 25 4.099 5.07 9.804 8.935 16 11 1.408.08 2.82.108 4.23.098l2.432-.01 2.526-.025 2.56-.014q3.126-.02 6.252-.049c5.247 9.78 9.344 20.088 13.625 30.313l2.512 5.973q2.616 6.22 5.227 12.442c3.796 9.036 7.61 18.064 11.425 27.093l3.603 8.533A43980 43980 0 0 0 424 257l9 1v1c-8.858.247-17.357-.464-26.125-1.687l-3.927-.537C390.217 255 377.551 252.785 365 250l-3.073-.644-2.978-.696-2.665-.601c-4.3-1.994-5.704-6.8-7.327-11.034l-1.14-2.954-1.22-3.2-1.301-3.383a5084 5084 0 0 1-3.503-9.141q-1.848-4.826-3.704-9.649-3.44-8.952-6.87-17.908a33193 33193 0 0 0-12.469-32.477l-1.225-3.19a8543 8543 0 0 0-18.712-48.248l-1.19-3.045-3.291-8.4-.985-2.517c-1.556-4.008-1.556-4.008-3.347-7.913a55820 55820 0 0 0-37.924 96.692Q246.54 195.847 241 210c-17.812-7.42-35.192-15.499-52-25l2-1a313 313 0 0 0 1-5 184 184 0 0 1 2.824-6.79l.89-2.046q.969-2.22 1.942-4.44a2595 2595 0 0 0 3.143-7.195q1.712-3.932 3.427-7.864c4.624-10.6 9.2-21.22 13.778-31.84q2.095-4.86 4.192-9.718l1.348-3.125 2.632-6.09a993 993 0 0 0 6.38-15.056l1.234-2.963q1.156-2.776 2.284-5.566l1.036-2.477.89-2.178C239 70 239 70 242 69v-2l-2-1 1.075-2.078c4.256-8.352 8.006-16.863 11.675-25.484q1.295-3.045 2.6-6.086 1.165-2.723 2.325-5.448C259 24 259 24 261 21"/><path fill="#7fbb49" d="M176 216c3.795 1.185 7.202 2.51 10.66 4.469l2.626 1.467 2.776 1.564c7.766 4.31 15.597 8.387 23.625 12.188l2.698 1.277c3.188 1.493 6.272 2.92 9.615 4.035-5.077 18.077-5.077 18.077-8 21-1.964.094-3.93.117-5.897.114h-3.822l-4.16-.016-4.233-.005q-5.58-.006-11.161-.024-5.691-.014-11.381-.02-11.173-.016-22.346-.049c1.945-6.15 4.204-12.068 6.793-17.973l1.063-2.45q1.662-3.822 3.332-7.64l2.271-5.224q2.764-6.36 5.541-12.713"/></svg>